<svg width="12" height="13" viewBox="0 0 12 13" fill="none" xmlns="http://www.w3.org/2000/svg">
<path d="M6 12.0422C3.375 12.0422 0.75 8.52467 0.75 5.6255C0.75 4.93606 0.885795 4.25338 1.14963 3.61642C1.41347 2.97946 1.80018 2.4007 2.28769 1.91319C2.7752 1.42569 3.35395 1.03897 3.99091 0.775136C4.62787 0.511299 5.31056 0.375504 6 0.375504C6.68944 0.375504 7.37213 0.511299 8.00909 0.775136C8.64605 1.03897 9.2248 1.42569 9.71231 1.91319C10.1998 2.4007 10.5865 2.97946 10.8504 3.61642C11.1142 4.25338 11.25 4.93606 11.25 5.6255C11.25 8.52467 8.625 12.0422 6 12.0422ZM4.8485 8.43659C5.15708 8.32459 5.67683 7.30142 5.34608 6.39317C5.01592 5.48492 3.94667 5.03984 3.6515 5.14775C3.35633 5.25509 2.82317 6.28292 3.15392 7.19117C3.48408 8.09942 4.53992 8.54859 4.8485 8.43659ZM7.1515 8.43659C7.46008 8.54859 8.51592 8.09942 8.84608 7.19117C9.17683 6.28292 8.64367 5.25509 8.3485 5.14775C8.05333 5.03984 6.98408 5.48492 6.65392 6.39317C6.32317 7.30142 6.84292 8.324 7.1515 8.43659Z" />
</svg>
