<svg width="14" height="14" viewBox="0 0 14 14" fill="none" xmlns="http://www.w3.org/2000/svg">
<path d="M7 14C6.05208 14 5.14518 13.8154 4.2793 13.4463C3.41341 13.0771 2.66829 12.5804 2.04395 11.9561C1.4196 11.3317 0.922852 10.5866 0.553711 9.7207C0.18457 8.85482 0 7.94792 0 7C0 6.05208 0.18457 5.14518 0.553711 4.2793C0.922852 3.41341 1.4196 2.66829 2.04395 2.04395C2.66829 1.4196 3.41341 0.922852 4.2793 0.553711C5.14518 0.18457 6.05208 0 7 0C7.94792 0 8.85482 0.18457 9.7207 0.553711C10.5866 0.922852 11.3317 1.4196 11.9561 2.04395C12.5804 2.66829 13.0771 3.41341 13.4463 4.2793C13.8154 5.14518 14 6.05208 14 7C14 7.94792 13.8154 8.85482 13.4463 9.7207C13.0771 10.5866 12.5804 11.3317 11.9561 11.9561C11.3317 12.5804 10.5866 13.0771 9.7207 13.4463C8.85482 13.8154 7.94792 14 7 14ZM5.11328 5.1543C5.19531 5.06315 5.23633 4.95378 5.23633 4.82617C5.23633 4.69857 5.19303 4.58919 5.10645 4.49805C5.01986 4.4069 4.91276 4.36133 4.78516 4.36133C4.65755 4.36133 4.54818 4.4069 4.45703 4.49805L3.92383 5.03125L3.4043 4.49805C3.31315 4.4069 3.20378 4.36133 3.07617 4.36133C2.94857 4.36133 2.83919 4.4069 2.74805 4.49805C2.6569 4.58919 2.61133 4.69857 2.61133 4.82617C2.61133 4.95378 2.6569 5.06315 2.74805 5.1543L3.28125 5.67383L2.74805 6.20703C2.6569 6.29818 2.61133 6.40755 2.61133 6.53516C2.61133 6.66276 2.6569 6.76986 2.74805 6.85645C2.83919 6.94303 2.94857 6.98633 3.07617 6.98633C3.20378 6.98633 3.31315 6.94531 3.4043 6.86328L3.92383 6.33008L4.45703 6.86328C4.54818 6.94531 4.65755 6.98633 4.78516 6.98633C4.91276 6.98633 5.01986 6.94303 5.10645 6.85645C5.19303 6.76986 5.23633 6.66276 5.23633 6.53516C5.23633 6.40755 5.19531 6.29818 5.11328 6.20703L4.58008 5.67383L5.11328 5.1543ZM7 9.625C6.51693 9.625 6.10449 9.7526 5.7627 10.0078C5.4209 10.263 5.25 10.5729 5.25 10.9375C5.25 11.3021 5.4209 11.612 5.7627 11.8672C6.10449 12.1224 6.51693 12.25 7 12.25C7.48307 12.25 7.89551 12.1224 8.2373 11.8672C8.5791 11.612 8.75 11.3021 8.75 10.9375C8.75 10.5729 8.5791 10.263 8.2373 10.0078C7.89551 9.7526 7.48307 9.625 7 9.625ZM11.2383 5.1543C11.3203 5.06315 11.3613 4.95378 11.3613 4.82617C11.3613 4.69857 11.318 4.58919 11.2314 4.49805C11.1449 4.4069 11.0378 4.36133 10.9102 4.36133C10.7826 4.36133 10.6732 4.4069 10.582 4.49805L10.0488 5.03125L9.5293 4.49805C9.43815 4.4069 9.32878 4.36133 9.20117 4.36133C9.07357 4.36133 8.96419 4.4069 8.87305 4.49805C8.7819 4.58919 8.73633 4.69857 8.73633 4.82617C8.73633 4.95378 8.7819 5.06315 8.87305 5.1543L9.40625 5.67383L8.87305 6.20703C8.7819 6.29818 8.73633 6.40755 8.73633 6.53516C8.73633 6.66276 8.7819 6.76986 8.87305 6.85645C8.96419 6.94303 9.07357 6.98633 9.20117 6.98633C9.32878 6.98633 9.43815 6.94531 9.5293 6.86328L10.0488 6.33008L10.582 6.86328C10.6732 6.94531 10.7826 6.98633 10.9102 6.98633C11.0378 6.98633 11.1449 6.94303 11.2314 6.85645C11.318 6.76986 11.3613 6.66276 11.3613 6.53516C11.3613 6.40755 11.3203 6.29818 11.2383 6.20703L10.7051 5.67383L11.2383 5.1543Z" />
</svg>
