<svg width="20" height="20" viewBox="0 0 20 20" fill="none" xmlns="http://www.w3.org/2000/svg">
    <path d="M17.2219 5.05351L11.2563 1.58672C10.8745 1.36544 10.4411 1.2489 9.99982 1.2489C9.55856 1.2489 9.12513 1.36544 8.74337 1.58672L2.77814 5.05351C2.75464 5.0673 2.73516 5.08699 2.72162 5.11063C2.70808 5.13427 2.70096 5.16104 2.70096 5.18828C2.70096 5.21552 2.70808 5.24229 2.72162 5.26593C2.73516 5.28957 2.75464 5.30926 2.77814 5.32305L9.92189 9.52539C9.94592 9.53954 9.9733 9.54701 10.0012 9.54701C10.0291 9.54701 10.0565 9.53954 10.0805 9.52539L17.2227 5.32305C17.2461 5.30919 17.2656 5.28945 17.279 5.26577C17.2925 5.24209 17.2995 5.2153 17.2995 5.18806C17.2994 5.16081 17.2922 5.13407 17.2786 5.11047C17.265 5.08686 17.2454 5.06723 17.2219 5.05351ZM10 5.9375C9.48243 5.9375 9.06251 5.65781 9.06251 5.3125C9.06251 4.96719 9.48243 4.6875 10 4.6875C10.5176 4.6875 10.9375 4.96719 10.9375 5.3125C10.9375 5.65781 10.5176 5.9375 10 5.9375Z" />
    <path d="M9.29688 10.5785L2.10938 6.38594C2.08563 6.37223 2.0587 6.36501 2.03129 6.36501C2.00388 6.365 1.97694 6.3722 1.95319 6.3859C1.92945 6.39959 1.90972 6.4193 1.89599 6.44303C1.88227 6.46676 1.87503 6.49368 1.875 6.5211V13.3148C1.87559 13.6422 1.96186 13.9637 2.12524 14.2473C2.28862 14.531 2.5234 14.7669 2.80625 14.9316L9.14062 18.7297C9.16437 18.7434 9.1913 18.7506 9.21871 18.7506C9.24612 18.7506 9.27306 18.7434 9.29681 18.7297C9.32055 18.716 9.34028 18.6963 9.35401 18.6726C9.36773 18.6489 9.37497 18.6219 9.375 18.5945V10.7137C9.37497 10.6863 9.36774 10.6594 9.35403 10.6356C9.34031 10.6119 9.3206 10.5922 9.29688 10.5785V10.5785ZM3.75 14.375C3.40469 14.375 3.125 13.9551 3.125 13.4375C3.125 12.9199 3.40469 12.5 3.75 12.5C4.09531 12.5 4.375 12.9199 4.375 13.4375C4.375 13.9551 4.09531 14.375 3.75 14.375ZM7.5 13.125C7.15469 13.125 6.875 12.7051 6.875 12.1875C6.875 11.6699 7.15469 11.25 7.5 11.25C7.84531 11.25 8.125 11.6699 8.125 12.1875C8.125 12.7051 7.84531 13.125 7.5 13.125Z" />
    <path d="M17.8906 6.38712L10.7031 10.6078C10.6795 10.6215 10.6598 10.6411 10.6461 10.6648C10.6324 10.6884 10.6251 10.7153 10.625 10.7426V18.5938C10.625 18.6212 10.6323 18.6481 10.646 18.6718C10.6597 18.6956 10.6794 18.7153 10.7032 18.729C10.7269 18.7426 10.7539 18.7499 10.7813 18.7498C10.8087 18.7498 10.8356 18.7426 10.8594 18.7289L17.1934 14.9309C17.4762 14.7662 17.711 14.5304 17.8744 14.2469C18.0378 13.9634 18.1242 13.6421 18.125 13.3149V6.52344C18.1252 6.49593 18.1181 6.46886 18.1044 6.44496C18.0908 6.42107 18.0711 6.4012 18.0473 6.38737C18.0235 6.37353 17.9965 6.36622 17.969 6.36618C17.9415 6.36614 17.9145 6.37336 17.8906 6.38712ZM12.5 16.5625C12.1547 16.5625 11.875 16.1426 11.875 15.625C11.875 15.1074 12.1547 14.6875 12.5 14.6875C12.8453 14.6875 13.125 15.1074 13.125 15.625C13.125 16.1426 12.8453 16.5625 12.5 16.5625ZM12.5 13.125C12.1547 13.125 11.875 12.7051 11.875 12.1875C11.875 11.6699 12.1547 11.25 12.5 11.25C12.8453 11.25 13.125 11.6699 13.125 12.1875C13.125 12.7051 12.8453 13.125 12.5 13.125ZM16.25 14.375C15.9047 14.375 15.625 13.9551 15.625 13.4375C15.625 12.9199 15.9047 12.5 16.25 12.5C16.5953 12.5 16.875 12.9199 16.875 13.4375C16.875 13.9551 16.5953 14.375 16.25 14.375ZM16.25 10.9375C15.9047 10.9375 15.625 10.5176 15.625 10C15.625 9.48243 15.9047 9.06251 16.25 9.06251C16.5953 9.06251 16.875 9.48243 16.875 10C16.875 10.5176 16.5953 10.9375 16.25 10.9375Z" />
</svg>