<svg width="26" height="26" viewBox="0 0 26 26" fill="none" xmlns="http://www.w3.org/2000/svg">
<rect width="26" height="26" rx="5" fill="white"/>
<path d="M18.417 13.2248C19.7647 13.3119 20.8446 12.4924 21.1233 11.3624C20.6348 10.7105 19.6103 10.4008 18.7066 10.941C17.8942 11.4828 17.6725 12.43 18.417 13.2248V13.2248ZM14.7684 4.39826L9.89077 6.93554L11.0187 7.49292L15.8921 4.96336L14.7684 4.39822V4.39826ZM10.1403 11.377L14.9055 21.6184L16.1777 22.3544L10.8496 7.81919L9.58049 7.17831L4.50708 16.1943L5.43288 16.6836L9.80625 11.3392C9.90192 11.2383 10.062 11.235 10.1403 11.377V11.377ZM18.6504 13.8121C17.2646 13.0937 17.2646 11.2876 18.6504 10.5691C20.0362 9.85066 21.7778 10.7536 21.7778 12.1906C21.7778 13.6277 20.0362 14.5306 18.6504 13.8121ZM20.2246 15.1634L22 20.0384L16.5785 23L14.5833 21.8337L11.0105 14.1619L5.48181 17.0955L4 16.3106L9.3615 6.81263L14.7607 4L16.4433 4.85118L18.147 9.54262C14.8547 11.2522 16.5093 15.5867 20.2246 15.1634V15.1634Z" fill="black"/>
</svg>
