<svg width="27" height="26" viewBox="0 0 27 26" fill="none" xmlns="http://www.w3.org/2000/svg">
<path d="M17.5326 17.3333C19.9258 17.3333 21.8659 15.3932 21.8659 13C21.8659 10.6068 19.9258 8.66666 17.5326 8.66666C15.1393 8.66666 13.1992 10.6068 13.1992 13C13.1992 15.3932 15.1393 17.3333 17.5326 17.3333Z" fill="#19BCFE"/>
<path fill-rule="evenodd" clip-rule="evenodd" d="M8.86593 26C10.0152 26 11.1174 25.5435 11.9301 24.7308C12.7427 23.9181 13.1993 22.8159 13.1993 21.6667V17.3333H8.86593C7.71665 17.3333 6.61445 17.7899 5.8018 18.6025C4.98914 19.4152 4.53259 20.5174 4.53259 21.6667C4.53259 22.8159 4.98914 23.9181 5.8018 24.7308C6.61445 25.5435 7.71665 26 8.86593 26Z" fill="#09CF83"/>
<path fill-rule="evenodd" clip-rule="evenodd" d="M8.86593 17.3333H13.1993V8.66666H8.86593C7.71665 8.66666 6.61445 9.1232 5.8018 9.93586C4.98914 10.7485 4.53259 11.8507 4.53259 13C4.53259 14.1493 4.98914 15.2515 5.8018 16.0641C6.61445 16.8768 7.71665 17.3333 8.86593 17.3333Z" fill="#A259FF"/>
<path fill-rule="evenodd" clip-rule="evenodd" d="M8.86593 8.66667H13.1993V0H8.86593C7.71665 0 6.61445 0.456546 5.8018 1.2692C4.98914 2.08186 4.53259 3.18406 4.53259 4.33333C4.53259 5.4826 4.98914 6.58481 5.8018 7.39746C6.61445 8.21012 7.71665 8.66667 8.86593 8.66667Z" fill="#F24E1E"/>
<path fill-rule="evenodd" clip-rule="evenodd" d="M17.5326 8.66667H13.1992V0H17.5326C18.6819 0 19.7841 0.456546 20.5967 1.2692C21.4094 2.08186 21.8659 3.18406 21.8659 4.33333C21.8659 5.4826 21.4094 6.58481 20.5967 7.39746C19.7841 8.21012 18.6819 8.66667 17.5326 8.66667Z" fill="#FF7262"/>
</svg>
