<svg width="10" height="13" viewBox="0 0 10 13" fill="none" xmlns="http://www.w3.org/2000/svg">
<path d="M7.255 1.33334H5.16667V0.166672H9.25V4.25H8.08333V2.15584L5.84917 4.39C6.1128 4.78809 6.27467 5.24481 6.32057 5.72006C6.36647 6.19531 6.295 6.67457 6.11242 7.11574C5.92984 7.55692 5.64175 7.94653 5.27343 8.25037C4.90512 8.5542 4.46784 8.76297 4 8.85834V10.0833H5.16667V11.25H4V12.4167H2.83333V11.25H1.66667V10.0833H2.83333V8.85834C2.17454 8.72386 1.58244 8.3659 1.15724 7.84503C0.73204 7.32416 0.499863 6.67239 0.5 6C0.5 5.22646 0.807291 4.48459 1.35427 3.93761C1.90125 3.39063 2.64312 3.08334 3.41667 3.08334C4 3.08334 4.56 3.25834 5.02083 3.5675L7.255 1.33334ZM3.41667 4.25C2.95254 4.25 2.50742 4.43438 2.17923 4.76257C1.85104 5.09076 1.66667 5.53588 1.66667 6C1.66667 6.46413 1.85104 6.90925 2.17923 7.23744C2.50742 7.56563 2.95254 7.75 3.41667 7.75C3.8808 7.75 4.32591 7.56563 4.6541 7.23744C4.98229 6.90925 5.16667 6.46413 5.16667 6C5.16667 5.53588 4.98229 5.09076 4.6541 4.76257C4.32591 4.43438 3.8808 4.25 3.41667 4.25Z" />
</svg>
