<svg width="6" height="14" viewBox="0 0 6 14" fill="none" xmlns="http://www.w3.org/2000/svg">
<path d="M3 0.25C1.7625 0.25 0.75 1.2625 0.75 2.5C0.75 3.7375 1.7625 4.75 3 4.75C4.2375 4.75 5.25 3.7375 5.25 2.5C5.25 1.2625 4.2375 0.25 3 0.25ZM3 1.375C3.62831 1.375 4.125 1.87169 4.125 2.5C4.125 3.12831 3.62831 3.625 3 3.625C2.37169 3.625 1.875 3.12831 1.875 2.5C1.875 1.87169 2.37169 1.375 3 1.375ZM0.1875 5.3125V8.125H1.3125V10.9375H0.1875V13.75H5.8125V10.9375H4.6875V5.3125H0.1875ZM1.3125 6.4375H3.5625V12.0625H4.6875V12.625H1.3125V12.0625H2.4375V7H1.3125V6.4375Z"/>
</svg>
