<svg width="10" height="13" viewBox="0 0 10 13" fill="none" xmlns="http://www.w3.org/2000/svg">
<path d="M5 0C3.72411 0.00150521 2.5009 0.509018 1.59871 1.41121C0.696519 2.3134 0.189007 3.53661 0.187501 4.8125C0.185973 5.85516 0.526555 6.86953 1.157 7.7C1.157 7.7 1.28825 7.87281 1.30969 7.89775L5 12.25L8.69206 7.89556C8.71131 7.87238 8.843 7.7 8.843 7.7L8.84344 7.69869C9.47357 6.86858 9.814 5.85468 9.8125 4.8125C9.811 3.53661 9.30348 2.3134 8.40129 1.41121C7.4991 0.509018 6.27589 0.00150521 5 0ZM5 6.5625C4.65388 6.5625 4.31554 6.45986 4.02775 6.26757C3.73997 6.07528 3.51567 5.80197 3.38321 5.4822C3.25076 5.16243 3.2161 4.81056 3.28363 4.47109C3.35115 4.13163 3.51782 3.8198 3.76256 3.57506C4.00731 3.33032 4.31913 3.16365 4.65859 3.09613C4.99806 3.0286 5.34993 3.06326 5.6697 3.19571C5.98947 3.32816 6.26278 3.55247 6.45507 3.84025C6.64737 4.12804 6.75 4.46638 6.75 4.8125C6.74942 5.27645 6.56486 5.72123 6.2368 6.0493C5.90873 6.37736 5.46395 6.56192 5 6.5625Z" />
</svg>
