<svg width="26" height="26" viewBox="0 0 26 26" fill="none" xmlns="http://www.w3.org/2000/svg">
<path d="M13 15.0101C14.1218 15.0101 15.0312 14.1007 15.0312 12.9789C15.0312 11.8571 14.1218 10.9476 13 10.9476C11.8782 10.9476 10.9688 11.8571 10.9688 12.9789C10.9688 14.1007 11.8782 15.0101 13 15.0101Z" fill="#00D8FF"/>
<path d="M13 17.6361C10.5585 17.6952 8.12321 17.3661 5.785 16.6611C4.70488 16.3187 3.69747 15.7794 2.81369 15.0703C2.47644 14.828 2.1956 14.5157 1.99042 14.1547C1.78524 13.7937 1.66058 13.3926 1.625 12.9789C1.625 11.6358 3.1005 10.3196 5.57212 9.45832C7.97285 8.69518 10.4812 8.32532 13 8.36307C15.4852 8.32834 17.9599 8.69152 20.3304 9.43882C21.3706 9.77044 22.3439 10.2838 23.205 10.9549C23.5365 11.1859 23.8131 11.4869 24.0153 11.8367C24.2175 12.1864 24.3403 12.5764 24.375 12.9789C24.375 14.3748 22.7256 15.7893 20.0688 16.6684C17.7758 17.3504 15.3919 17.6768 13 17.6361ZM13 9.33482C10.5902 9.30261 8.19067 9.65421 5.89144 10.3764C3.61644 11.1703 2.59675 12.2558 2.59675 12.9764C2.59675 13.7304 3.69281 14.9159 6.09944 15.7389C8.33631 16.4099 10.6654 16.7223 13 16.6644C15.2883 16.7053 17.5694 16.3957 19.7641 15.7463C22.2625 14.9183 23.4 13.7313 23.4 12.9789C23.359 12.7207 23.2649 12.4738 23.1237 12.2538C22.9824 12.0338 22.7971 11.8455 22.5794 11.7008C21.8089 11.1054 20.9395 10.6504 20.0111 10.3569C17.7434 9.64499 15.3765 9.29994 13 9.33482Z" fill="#00D8FF"/>
<path d="M8.38499 23.1099C8.00596 23.1186 7.6314 23.0267 7.29949 22.8434C6.13599 22.1723 5.73299 20.2369 6.2213 17.6654C6.7597 15.2044 7.69258 12.8467 8.9838 10.6836C10.195 8.51347 11.7456 6.55113 13.5769 4.87095C14.3838 4.13539 15.3147 3.54864 16.3264 3.13788C16.6923 2.9664 17.0914 2.8775 17.4956 2.8775C17.8997 2.8775 18.2988 2.9664 18.6647 3.13788C19.8746 3.83501 20.2751 5.97026 19.7104 8.71082C19.1554 11.0383 18.2468 13.2669 17.0162 15.3189C15.8476 17.4634 14.3458 19.4086 12.5669 21.0819C11.7307 21.8463 10.7602 22.4493 9.70449 22.8605C9.28184 23.0174 8.83573 23.1017 8.38499 23.1099ZM9.82555 11.1662C8.59388 13.2375 7.69978 15.4917 7.1768 17.8441C6.72749 20.2126 7.15893 21.6369 7.78618 21.9993C8.43618 22.3754 10.0141 22.0188 11.9299 20.345C13.6281 18.7419 15.0615 16.8799 16.1769 14.8281C17.3557 12.8664 18.2274 10.7357 18.7614 8.51013C19.2928 5.93045 18.8337 4.35095 18.1821 3.97557C17.9379 3.88199 17.6769 3.8401 17.4157 3.85255C17.1544 3.865 16.8986 3.93151 16.6644 4.04788C15.7639 4.41948 14.936 4.94702 14.2187 5.60626C12.4692 7.21565 10.988 9.09427 9.83124 11.1711L9.82555 11.1662Z" fill="#00D8FF"/>
<path d="M17.6126 23.1205C16.5116 23.1205 15.1133 22.4543 13.6573 21.2022C11.794 19.5067 10.2172 17.5211 8.98788 15.3221C7.71285 13.1888 6.78736 10.8652 6.24651 8.43945C6.01194 7.37222 5.96848 6.27186 6.11813 5.18945C6.15273 4.78792 6.275 4.39887 6.47631 4.04973C6.67762 3.70059 6.95308 3.39986 7.28326 3.16876C8.49144 2.4692 10.5414 3.18826 12.6336 5.04564C14.3728 6.68866 15.8498 8.58871 17.0129 10.6795C18.2872 12.763 19.2224 15.0358 19.7836 17.4127C20.0282 18.5191 20.066 19.6612 19.8949 20.7813C19.8542 21.1944 19.7246 21.5938 19.5151 21.9521C19.3056 22.3104 19.021 22.6192 18.681 22.8573C18.3545 23.0382 17.9858 23.1291 17.6126 23.1205ZM9.82882 14.833C11.0081 16.9345 12.5144 18.8349 14.2911 20.4628C16.1184 22.035 17.5679 22.373 18.1911 22.0066C18.8411 21.6288 19.3204 20.0866 18.8264 17.5914C18.2852 15.3221 17.3882 13.1527 16.1688 11.1638C15.0587 9.16268 13.649 7.34328 11.9884 5.76876C10.0189 4.02026 8.42157 3.62945 7.77076 4.00645C7.56791 4.17129 7.40145 4.3764 7.28188 4.60883C7.16231 4.84125 7.09223 5.09595 7.07607 5.35683C6.94688 6.32215 6.98897 7.30269 7.20038 8.25339C7.72063 10.5732 8.60823 12.795 9.82963 14.8346L9.82882 14.833Z" fill="#00D8FF"/>
</svg>
